<svg width="512" height="512" viewBox="0 0 512 512" fill="none" xmlns="http://www.w3.org/2000/svg">
<path d="M158.394 211.072C159.706 211.787 161.256 214.292 161.853 216.796C162.687 220.135 162.807 281.906 162.091 297.169C161.972 299.793 158.752 302.893 156.009 302.893C154.817 302.893 147.185 298.481 139.076 292.996C123.812 282.86 113.318 276.062 102.586 269.504C95.3117 265.091 94 263.064 94 256.744C94 250.662 96.0272 248.874 117.85 234.683C127.39 228.482 139.434 220.373 144.561 216.677C154.698 209.402 155.055 209.283 158.394 211.072Z" fill="url(#paint0_linear_10_30)"/>
<path d="M202.724 407.795C198.341 405.404 193.162 397.037 191.169 388.67C188.38 377.514 187.982 171.125 190.372 120.125C190.771 111.359 201.529 101 210.693 101C214.677 101 240.177 115.742 267.27 134.07C318.27 167.937 353.332 190.648 389.191 212.562C413.496 227.304 417.879 234.077 417.879 255.194C417.879 275.514 411.105 281.491 338.192 328.905C306.317 349.623 266.075 376.717 248.942 389.068C215.076 413.373 213.88 413.771 202.724 407.795Z" fill="url(#paint1_linear_10_30)"/>
<path d="M262.728 307.2C261.24 306.388 259.48 303.546 258.804 300.705C257.857 296.916 257.721 226.817 258.533 209.496C258.668 206.518 262.322 203 265.435 203C266.788 203 275.449 208.007 284.651 214.232C301.972 225.735 313.881 233.448 326.06 240.891C334.315 245.898 335.804 248.199 335.804 255.371C335.804 262.272 333.503 264.302 308.739 280.406C297.913 287.443 284.245 296.645 278.426 300.84C266.923 309.095 266.517 309.23 262.728 307.2Z" fill="url(#paint2_linear_10_30)"/>
<path d="M271.56 284.411C270.754 283.971 269.801 282.433 269.435 280.894C268.922 278.843 268.849 240.894 269.289 231.517C269.362 229.905 271.34 228 273.025 228C273.758 228 278.446 230.711 283.428 234.081C292.805 240.308 299.252 244.484 305.846 248.513C310.315 251.224 311.12 252.469 311.12 256.352C311.12 260.088 309.875 261.187 296.468 269.905C290.607 273.715 283.208 278.696 280.058 280.967C273.831 285.436 273.611 285.51 271.56 284.411Z" fill="url(#paint3_linear_10_30)"/>
<defs>
<linearGradient id="paint0_linear_10_30" x1="130" y1="297.5" x2="128.28" y2="210.113" gradientUnits="userSpaceOnUse">
<stop offset="0.10674" stop-color="#F9C5F6"/>
<stop offset="0.729808" stop-color="#F6F2FA"/>
</linearGradient>
<linearGradient id="paint1_linear_10_30" x1="215" y1="101" x2="392" y2="433" gradientUnits="userSpaceOnUse">
<stop offset="0.0275099" stop-color="#15EFFE"/>
<stop offset="0.430249" stop-color="#6AA1FF"/>
<stop offset="0.680458" stop-color="#289DFF"/>
</linearGradient>
<linearGradient id="paint2_linear_10_30" x1="296.902" y1="203" x2="364.872" y2="308.367" gradientUnits="userSpaceOnUse">
<stop offset="0.488105"/>
<stop offset="0.82494" stop-color="#000F97" stop-opacity="0"/>
</linearGradient>
<linearGradient id="paint3_linear_10_30" x1="290.06" y1="228" x2="319.07" y2="293.428" gradientUnits="userSpaceOnUse">
<stop offset="0.077136" stop-color="#256FF7"/>
<stop offset="0.609143" stop-color="#2670FD"/>
</linearGradient>
</defs>
</svg>
